<svg xmlns="http://www.w3.org/2000/svg" width="159.099" height="115.157" viewBox="0 0 42.095 30.469"><g transform="translate(-13.23 -6.548)"><rect style="fill:#777;fill-opacity:1;stroke-width:.881704;stroke-linejoin:round" width="42.095" height="30.469" x="13.23" y="6.548" ry=".128"/><path style="fill:#b3dc45;fill-opacity:1;stroke-width:.650992;stroke-linejoin:round" d="M48.689 56.418a.08.08 0 0 0-.02.045l-.794 12.76c-.002.033.018.061.048.082l2.607-1.71.568-9.124-2.377-1.993a.09.09 0 0 1-.032-.06z" transform="translate(-10.824 -48.376)"/><path style="fill:#b3dc45;fill-opacity:1;stroke-width:.65882;stroke-linejoin:round" d="m49.807 56.218 2.523 2.138h9.89l2.265-2.094a.125.125 0 0 1 .07-.03.13.13 0 0 0-.056-.014z" transform="translate(-10.824 -48.376)"/><path style="fill:#b3dc45;fill-opacity:1;stroke-width:2.87732;stroke-linejoin:round" d="m232.268 256.066-36.756.051-11.41 7.93a.747.747 0 0 1-.354.117c.085.03.178.05.281.049l37.48-.05z" transform="matrix(.26458 0 0 .26458 -10.824 -48.376)"/><path style="fill:#b3dc45;fill-opacity:1;stroke-width:.687063;stroke-linejoin:round" d="M61.268 82.936a.097.097 0 0 0 .019-.05l.724-14.223c.002-.035-.017-.067-.048-.089l-2.598 1.94-.518 10.17 2.387 2.186c.021.02.03.042.034.066z" transform="translate(-10.824 -48.376)"/><path style="fill:#b3dc45;fill-opacity:1;stroke-width:.677413;stroke-linejoin:round" d="m57.983 80.886-8.686.038-1.982 2.504a.099.099 0 0 1-.061.037c.015.01.031.016.05.016l13.464-.058-2.783-2.533-.002-.004z" transform="translate(-10.824 -48.376)"/><g><path style="fill:#b3dc45;fill-opacity:1;stroke-width:.650992;stroke-linejoin:round" d="M23.966 56.552a.08.08 0 0 0-.02.045l-.793 12.76c-.002.032.017.061.048.081l2.606-1.709.568-9.124L24 56.612a.09.09 0 0 1-.033-.06z" transform="translate(-6.682 -48.51)"/><path style="fill:#b3dc45;fill-opacity:1;stroke-width:.693253;stroke-linejoin:round" d="M23.172 69.304a.098.098 0 0 0-.019.05l-.744 14.472c-.002.036.018.069.049.092l2.599-1.928.532-10.347-2.383-2.271a.108.108 0 0 1-.034-.068z" transform="translate(-6.682 -48.51)"/><path style="fill:#b3dc45;fill-opacity:1;stroke-width:.65882;stroke-linejoin:round" d="m24.951 56.218 2.523 2.138h9.89l2.265-2.094a.125.125 0 0 1 .07-.03.13.13 0 0 0-.056-.014zM26.001 68.379l-1.734 1.232 1.069.906h8.218l1.205-.866-1.48-1.272z" transform="translate(-6.682 -48.51)"/></g></g></svg>