<svg xmlns="http://www.w3.org/2000/svg" width="159.099" height="115.157" viewBox="0 0 42.095 30.469"><g transform="matrix(1 0 0 1.00243 0 0)"><rect style="fill:#777;fill-opacity:1;stroke-width:.881704;stroke-linejoin:round" width="42.095" height="30.469" x="-.01" y=".08" ry=".128"/><path style="fill:#b3dc45;fill-opacity:1;stroke-width:.650992;stroke-linejoin:round" d="M24.635 1.494a.08.08 0 0 0-.02.045l-.794 12.76c-.002.033.018.061.048.082l2.607-1.71.568-9.124-2.377-1.993a.09.09 0 0 1-.032-.06z"/><path style="fill:#b3dc45;fill-opacity:1;stroke-width:.65882;stroke-linejoin:round" d="m24.783 1.346 2.523 2.138h9.89L39.46 1.39a.125.125 0 0 1 .07-.03.13.13 0 0 0-.056-.014z"/><path style="fill:#b3dc45;fill-opacity:1;stroke-width:.727051;stroke-linejoin:round" d="m36.594 12.789-9.88.01-2.85 1.83 10.356-.01z"/><path style="fill:#b3dc45;fill-opacity:1;stroke-width:.687063;stroke-linejoin:round" d="M36.213 27.233a.097.097 0 0 0 .019-.05l.724-14.223c.002-.035-.017-.067-.048-.089l-2.598 1.94-.518 10.17 2.387 2.186c.02.02.03.042.034.066z"/><path style="fill:#b3dc45;fill-opacity:1;stroke-width:.667842;stroke-linejoin:round" d="m33.527 25.052-8.566.001-1.966 2.46a.098.098 0 0 1-.06.036c.015.01.03.016.05.016l13.279-.002-2.735-2.508z"/><path style="fill:#b3dc45;fill-opacity:1;stroke-width:2.46041;stroke-linejoin:round" d="M13.912 6.117a.302.302 0 0 0-.074.17l-2.57 41.336a.37.379 0 0 0-.026.11l-.178 3.16-.037.607h3.246l6.682-4.502 2.063-33.123-8.977-7.531a.34.34 0 0 1-.125-.227zm-2.93 46.084-.142 2.313c-.002.024.013.045.017.068L8.105 103.66c-.008.14.067.266.184.356l9.865-7.393 2.155-38.424-6.131-5.998z" transform="matrix(.26459 0 0 .26459 0 0)"/><path style="fill:#b3dc45;fill-opacity:1;stroke-width:.65882;stroke-linejoin:round" d="m3.808 1.425 2.523 2.138h9.89l2.265-2.094a.125.125 0 0 1 .07-.03.13.13 0 0 0-.056-.014z"/><path style="fill:#b3dc45;fill-opacity:1;stroke-width:2.49;stroke-linejoin:round" d="m21.195 48.195-5.564 3.727 4.357 4.353h27.075l8.474-8.08z" transform="matrix(.26459 0 0 .26459 0 0)"/></g></svg>