<svg xmlns="http://www.w3.org/2000/svg" width="151.25" height="81.5" viewBox="0 0 40.018 21.564"><g transform="translate(-6.35 -11.84)"><path style="fill:#fff;fill-opacity:1;stroke:#999;stroke-width:.264583;stroke-linejoin:round;stroke-miterlimit:4;stroke-dasharray:none;stroke-opacity:1" d="M6.482 13.295h39.754v19.976H6.482z"/><path style="fill:#ff2a2a;fill-opacity:1;stroke:none;stroke-width:.264365;stroke-linejoin:round;stroke-miterlimit:4;stroke-dasharray:none;stroke-opacity:1" d="M7.416 11.84a2.906 3.01 15.625 0 0-1.066 1.124v.794h40.018v-.775a3.005 2.91 19.643 0 0-1.084-1.143z"/><rect style="fill:#000;fill-opacity:1;stroke:none;stroke-width:.21301;stroke-linejoin:round;stroke-miterlimit:4;stroke-dasharray:none;stroke-opacity:1" width="6.548" height="2.315" x="37.306" y="27.98" ry=".214"/><g style="fill:#cf0"><path style="fill:#cf0;fill-opacity:1;stroke:none;stroke-width:1.27688;stroke-linejoin:round;stroke-miterlimit:4;stroke-dasharray:none;stroke-opacity:1" d="M196 28.625v2.242l-1.635-1.635-.883.883L196 32.633V38h1.25v-5.492l2.518-2.518-.883-.883-1.635 1.635v-2.117z" transform="matrix(.05919 0 0 .0515 26.528 27.233)"/><path style="fill:#cf0;fill-opacity:1;stroke:none;stroke-width:1.27688;stroke-linejoin:round;stroke-miterlimit:4;stroke-dasharray:none;stroke-opacity:1" d="M196 28.625v2.242l-1.635-1.635-.883.883L196 32.633V38h1.25v-5.492l2.518-2.518-.883-.883-1.635 1.635v-2.117z" transform="matrix(.05919 0 0 .0515 26.528 27.233)"/><path style="fill:#cf0;fill-opacity:1;stroke:none;stroke-width:.337841;stroke-linejoin:round;stroke-miterlimit:4;stroke-dasharray:none;stroke-opacity:1" d="m54.091 8.634-.513.296.158-.59-.32-.086-.243.91-1.23.71.166.286 1.258-.726.91.244.085-.32-.59-.158.485-.28z" transform="matrix(.2237 0 0 .19463 26.528 27.233)"/><path style="fill:#cf0;fill-opacity:1;stroke:none;stroke-width:.337841;stroke-linejoin:round;stroke-miterlimit:4;stroke-dasharray:none;stroke-opacity:1" d="m54.29 11.098-.514-.297.59-.158-.085-.32-.91.245-1.23-.71-.165.286 1.259.727.244.91.319-.086-.159-.59.485.28z" transform="matrix(.2237 0 0 .19463 26.528 27.233)"/><path style="fill:#cf0;fill-opacity:1;stroke:none;stroke-width:.337841;stroke-linejoin:round;stroke-miterlimit:4;stroke-dasharray:none;stroke-opacity:1" d="M52.19 12.502v-.594l.432.433.233-.234-.666-.666v-1.42h-.33v1.453l-.667.666.234.234.432-.433v.56z" transform="matrix(.2237 0 0 .19463 26.528 27.233)"/><path style="fill:#cf0;fill-opacity:1;stroke:none;stroke-width:.337841;stroke-linejoin:round;stroke-miterlimit:4;stroke-dasharray:none;stroke-opacity:1" d="m49.956 11.441.514-.296-.159.59.32.086.243-.91 1.23-.71-.165-.286-1.259.726-.91-.243-.085.319.59.158-.484.28z" transform="matrix(.2237 0 0 .19463 26.528 27.233)"/><path style="fill:#cf0;fill-opacity:1;stroke:none;stroke-width:.337841;stroke-linejoin:round;stroke-miterlimit:4;stroke-dasharray:none;stroke-opacity:1" d="m49.758 8.978.513.296-.59.158.085.32.91-.244 1.23.71.165-.287-1.258-.726-.244-.91-.32.085.16.591-.486-.28z" transform="matrix(.2237 0 0 .19463 26.528 27.233)"/></g></g></svg>