<svg xmlns="http://www.w3.org/2000/svg" width="189.41" height="149.031" viewBox="0 0 50.115 39.431"><g transform="translate(-27.151 -15.785)"><rect style="fill:#fff;fill-opacity:1;stroke:none;stroke-width:.196048;stroke-linejoin:round;stroke-miterlimit:4;stroke-dasharray:none;stroke-opacity:1" width="50.115" height="39.431" x="27.151" y="15.785" ry="0"/><ellipse style="fill:#fff;stroke:#998bbe;stroke-width:.324926;stroke-linejoin:round;stroke-miterlimit:4;stroke-dasharray:none;stroke-opacity:1" cx="48.175" cy="39.289" rx="14.068" ry="13.734"/><rect style="fill:#fff;stroke:#000;stroke-width:.264583;stroke-linejoin:round;stroke-miterlimit:4;stroke-dasharray:none;stroke-opacity:1" width="6.147" height="24.322" x="54.957" y="-34.362" ry="3.074" transform="rotate(60)"/><path d="M31.67 46.26v2.116m-.828-1.803.815.545m.763-.545-.763.545" style="fill:none;stroke:#0099ef;stroke-width:.23568"/><path d="m33.763 47.317-2.094 1.057m1.372-1.528-.133.89m.922.306-.922-.306m.855-.42-2.094 1.058m1.372-1.528-.133.89m.922.306-.922-.306M33.766 49.432l-2.094-1.058m2.2.275-.948.344m.158.852-.158-.852" style="fill:none;stroke:#0099ef;stroke-width:.235681"/><path d="M31.672 50.49v-2.114m.828 1.803-.815-.546m-.764.546.764-.546" style="fill:none;stroke:#0099ef;stroke-width:.23568"/><path d="m29.577 49.435 2.094-1.058m-1.372 1.529.133-.89m-.922-.306.922.306M29.577 47.32l2.094 1.058m-2.2-.276.948-.344m-.158-.851.158.851" style="fill:none;stroke:#0099ef;stroke-width:.235681"/><g><path d="M68.75 21.06v6.564m-2.26-5.597 2.225 1.693m2.086-1.693-2.086 1.693" style="fill:none;stroke:#0099ef;stroke-width:.686184"/><path d="m74.468 24.336-5.72 3.283m3.748-4.744-.363 2.762m2.518.949-2.518-.95m2.335-1.3-5.72 3.283m3.748-4.744-.363 2.762m2.518.949-2.518-.95M74.477 30.9l-5.72-3.282m6.006.853-2.587 1.069m.432 2.642-.432-2.642" style="fill:none;stroke:#0099ef;stroke-width:.686187"/><path d="M68.758 34.187v-6.565m2.26 5.598-2.225-1.693m-2.086 1.693 2.086-1.693" style="fill:none;stroke:#0099ef;stroke-width:.686184"/><path d="m63.035 30.91 5.719-3.282m-3.747 4.743.363-2.761m-2.518-.95 2.518.95M63.034 24.346l5.72 3.283m-6.006-.854 2.587-1.068m-.432-2.643.432 2.643" style="fill:none;stroke:#0099ef;stroke-width:.686187"/></g><ellipse style="fill:#e53837;fill-opacity:1;stroke:none;stroke-width:.264583;stroke-linejoin:round;stroke-miterlimit:4;stroke-dasharray:none;stroke-opacity:1" cx="56.394" cy="34.545" rx=".935" ry=".869"/><path style="fill:#a99cff;fill-opacity:1;stroke:none;stroke-width:.264583;stroke-linejoin:round;stroke-miterlimit:4;stroke-dasharray:none;stroke-opacity:1" d="M58.805 20.772a18.642 18.308 8.837 0 0-6.86-2.488A18.642 18.308 8.837 0 0 30.71 33.51a18.642 18.308 8.837 0 0 1.963 11.364 16.303 17.038 8.837 0 1-1.163-9.548 16.303 17.038 8.837 0 1 18.727-14.332 16.303 17.038 8.837 0 1 6.447 2.556z"/></g></svg>