<svg xmlns="http://www.w3.org/2000/svg" width="137.381" height="129.805" viewBox="0 0 36.349 34.344"><g transform="translate(-15.502 -15.635)"><rect style="fill:#fff;fill-opacity:1;stroke-width:.70424;stroke-linejoin:round" width="36.349" height="34.344" x="15.502" y="15.635" ry=".488"/><g transform="translate(-44.901 -1.47)"><rect style="fill:none;fill-opacity:1;stroke:#000;stroke-width:.264583;stroke-linejoin:round;stroke-miterlimit:4;stroke-dasharray:none;stroke-opacity:1" width="29.839" height="27.567" x="62.856" y="20.628" ry="3.534"/><rect style="fill:none;fill-opacity:1;stroke:#000;stroke-width:.311756;stroke-linejoin:round;stroke-miterlimit:4;stroke-dasharray:none;stroke-opacity:1" width="21.072" height="20.533" x="67.504" y="24.345" ry=".351"/><circle style="fill:#000;fill-opacity:1;stroke:none;stroke-width:.115019;stroke-linejoin:round;stroke-miterlimit:4;stroke-dasharray:none;stroke-opacity:1" cx="73.499" cy="34.077" r="1.423"/><circle style="fill:#000;fill-opacity:1;stroke:none;stroke-width:.115019;stroke-linejoin:round;stroke-miterlimit:4;stroke-dasharray:none;stroke-opacity:1" cx="82.586" cy="34.077" r="1.423"/><circle style="fill:none;fill-opacity:1;stroke:#000;stroke-width:.264583;stroke-linejoin:round;stroke-miterlimit:4;stroke-dasharray:none;stroke-opacity:1" cx="78.176" cy="40.224" r="1.423"/><rect style="fill:#000;fill-opacity:1;stroke:none;stroke-width:.166816;stroke-linejoin:round;stroke-miterlimit:4;stroke-dasharray:none;stroke-opacity:1" width="2.138" height=".535" x="83.33" y="-24.892" ry=".153" transform="rotate(43.493)"/><rect style="fill:#000;fill-opacity:1;stroke:none;stroke-width:.166816;stroke-linejoin:round;stroke-miterlimit:4;stroke-dasharray:none;stroke-opacity:1" width="2.138" height=".535" x="23.125" y="84.319" ry=".153" transform="rotate(-46.78)"/><ellipse style="fill:none;fill-opacity:1;stroke:#999;stroke-width:.264583;stroke-linejoin:round;stroke-miterlimit:4;stroke-dasharray:none;stroke-opacity:1" cx="78.043" cy="34.611" rx="8.814" ry="8.68"/><rect style="fill:#f35e34;fill-opacity:.714859;stroke:none;stroke-width:.4175;stroke-linejoin:round;stroke-miterlimit:4;stroke-dasharray:none;stroke-opacity:1" width="3.566" height="43.986" x="27.48" y="57.26" ry="0" transform="scale(1.02404 .97537) rotate(-45)"/><rect style="fill:#f35e34;fill-opacity:.714859;stroke:none;stroke-width:.400273;stroke-linejoin:round;stroke-miterlimit:4;stroke-dasharray:none;stroke-opacity:1" width="3.419" height="42.171" x="78.085" y="-57.109" ry="0" transform="matrix(.65624 .75455 -.69983 .7143 0 0)"/></g></g></svg>