<svg xmlns="http://www.w3.org/2000/svg" width="76.724" height="149.213" viewBox="0 0 20.3 39.479"><path style="fill:#e8e8e8;fill-opacity:1;stroke:#999;stroke-width:.264583;stroke-linejoin:round;stroke-miterlimit:4;stroke-dasharray:none;stroke-opacity:1" d="M.133-.083h19.971v39.215H.133z"/><path style="fill:#e8e8e8;fill-opacity:1;stroke:#999;stroke-width:.111218px;stroke-linecap:butt;stroke-linejoin:miter;stroke-opacity:1" d="M.124 22.042c20.188 0 20.12.012 20.12.012v-.012"/><rect style="fill:#000;fill-opacity:1;stroke:none;stroke-width:.289836;stroke-linejoin:round;stroke-miterlimit:4;stroke-dasharray:none;stroke-opacity:1" width="4.811" height="6.615" x="8.147" y="6.394" ry=".367"/><path style="fill:#2aa61a;fill-opacity:1;stroke:none;stroke-width:.167127;stroke-linejoin:round;stroke-miterlimit:4;stroke-dasharray:none;stroke-opacity:1" d="M8.748 9.843h3.608v.186H8.748z"/><path style="fill:#2aa61a;fill-opacity:1;stroke:none;stroke-width:.11222;stroke-linejoin:round;stroke-miterlimit:4;stroke-dasharray:none;stroke-opacity:1" d="M9.918 8.316h1.136v.267H9.918z"/><path style="fill:#e8e8e8;fill-opacity:1;stroke:none;stroke-width:.11222;stroke-linejoin:round;stroke-miterlimit:4;stroke-dasharray:none;stroke-opacity:1" d="M9.918 7.28h1.136v.267H9.918zm0 .525h1.136v.267H9.918zm0 1.02h1.136v.267H9.918z"/><path style="fill:#2aa61a;fill-opacity:1;stroke:none;stroke-width:.11222;stroke-linejoin:round;stroke-miterlimit:4;stroke-dasharray:none;stroke-opacity:1" d="M9.918 10.7h1.136v.267H9.918z"/><path style="fill:#e8e8e8;fill-opacity:1;stroke:none;stroke-width:.11222;stroke-linejoin:round;stroke-miterlimit:4;stroke-dasharray:none;stroke-opacity:1" d="M9.918 11.168h1.136v.267H9.918zm0 .49h1.136v.268H9.918zm0 .469h1.136v.267H9.918z"/></svg>